<svg width="55" height="54" viewBox="0 0 55 54" fill="none" xmlns="http://www.w3.org/2000/svg">
<rect width="55" height="54" rx="27" fill="#FF8500"/>
<path d="M25.5121 19.224L20.8604 13.9523C20.3242 13.3448 19.3411 13.3475 18.7182 13.9604L14.8929 17.7228C13.7544 18.842 13.4286 20.5038 14.0872 21.8363C18.0219 29.835 24.5923 36.2949 32.7336 40.1693C34.0893 40.8159 35.7806 40.496 36.9191 39.3768L40.7801 35.5793C41.4057 34.965 41.4071 33.9944 40.7828 33.4679L35.3928 28.9251C34.8291 28.4499 33.9532 28.512 33.3881 29.0682L31.5126 30.9123C31.4166 31.0111 31.2902 31.0762 31.1528 31.0977C31.0154 31.1192 30.8747 31.0958 30.7522 31.0311C27.6866 29.2978 25.1436 26.7978 23.3822 23.7857C23.3162 23.6652 23.2923 23.5268 23.3142 23.3917C23.3361 23.2566 23.4025 23.1323 23.5032 23.0378L25.3732 21.2004C25.9397 20.6415 26.0016 19.7775 25.5121 19.2227V19.224Z" stroke="white" stroke-width="1.5" stroke-linecap="round" stroke-linejoin="round"/>
</svg>
